<?xml version="1.0" encoding="utf-8"?>
<!-- Generator: Adobe Illustrator 24.3.0, SVG Export Plug-In . SVG Version: 6.00 Build 0)  -->
<svg version="1.1" id="Layer_1" xmlns="http://www.w3.org/2000/svg" xmlns:xlink="http://www.w3.org/1999/xlink" x="0px" y="0px"
	 viewBox="0 0 1920 1080" style="enable-background:new 0 0 1920 1080;" xml:space="preserve">
<style type="text/css">
	.st0{fill:#6352C9;}
	.st1{opacity:0.55;fill:#90CEDD;enable-background:new    ;}
	.st2{fill:#79C9E8;}
	.st3{fill:#3495A5;}
	.st4{fill:#08475B;}
	.st5{fill:#0B596B;}
	.st6{fill:#FFFFFF;}
	.st7{fill:#FFBF4D;}
	.st8{fill:#00668E;}
	.st9{fill:#05556D;}
	.st10{fill:#F98D3D;}
	.st11{fill:#ED701B;}
	.st12{fill:none;}
	.st13{fill:#EFAA3A;}
	.st14{opacity:0.29;fill:#F98D2B;enable-background:new    ;}
	.st15{fill:#49B4D6;}
	.st16{fill:#FF9F50;}
	.st17{fill:#F77E2D;}
	.st18{fill:#1D7793;}
	.st19{fill:#0582C1;}
	.st20{opacity:0.55;fill:url(#SVGID_1_);enable-background:new    ;}
	.st21{fill:#786FD1;}
</style>
<g>
	<g>
		<path class="st0" d="M1411.8,965.6c15.5,0,28.1-12.4,28.3-27.9c1.2-77.1,7.4-190.8-137.8-222.2
			c-117.5-25.4-47.8-234.2-364.2-220.7c-227.1,9.7-166.8,201.1-343.3,217c-117.5,10.6-118.5,159.2-114,227.3
			c1,14.9,13.3,26.5,28.3,26.5L1411.8,965.6L1411.8,965.6z"/>
		<g>
			<path class="st1" d="M1302.3,715.5c-117.5-25.4-47.8-234.2-364.2-220.7c-54,2.3-91.7,14.9-120.3,33c9.6-1.3,19.8-2.1,30.7-2.6
				c316.4-13.5,246.7,195.3,364.2,220.7c143.6,31.1,139.1,142.7,137.8,219.7h61.2c15.5,0,28.1-12.4,28.3-27.9
				C1441.3,860.7,1447.5,747,1302.3,715.5z"/>
		</g>
		<g>
			<rect x="799.3" class="st2" width="5" height="442.4"/>
			<rect x="1157.4" class="st2" width="5" height="510.4"/>
			<g>
				<path class="st3" d="M1162,485.9l-371.4-43.4c-15.9-1.9-30.2,9.5-32.1,25.4l-27.7,237.5c-1.9,15.9,9.5,30.2,25.4,32.1
					l371.4,43.4c15.9,1.9,30.2-9.5,32.1-25.4l27.7-237.5C1189.2,502.1,1177.8,487.8,1162,485.9z"/>
				<path class="st4" d="M1184.6,541.5l2.7-23.5c1.9-15.9-9.5-30.2-25.4-32.1l-371.4-43.4c-15.9-1.9-30.2,9.5-32.1,25.4l-2.7,23.5
					L1184.6,541.5z"/>
				<g>
					<path class="st5" d="M815.8,635.3l47.1-83c3-5.3,8.9-8.3,15-7.6l0,0c8.3,1,14.3,8.5,13.3,16.9l-9.8,83.9h0.4
						c5.8,0.7,9.9,5.9,9.2,11.7l0,0c-0.7,5.8-5.9,9.9-11.7,9.2h-0.4l-1.8,15.3c-0.7,6.2-6.4,10.7-12.6,10l0,0
						c-6.2-0.7-10.7-6.4-10-12.6l1.8-15.3l-33.9-4c-5.8-0.7-9.9-5.9-9.3-11.7l0.9-7.7C814.3,638.6,814.9,636.9,815.8,635.3z
						 M859,641.5l6.1-52c0-0.4-0.4-0.5-0.6-0.2l-27.8,49.1c-0.5,0.9,0.1,2,1,2.1l19.8,2.3C858.2,642.8,858.9,642.2,859,641.5z"/>
					<path class="st5" d="M1023.6,659.5l47.1-83c3-5.3,8.9-8.3,15-7.6l0,0c8.3,1,14.3,8.5,13.3,16.9l-9.8,83.9h0.4
						c5.8,0.7,9.9,5.9,9.2,11.7l0,0c-0.7,5.8-5.9,9.9-11.7,9.2h-0.4L1085,706c-0.7,6.2-6.4,10.7-12.6,10l0,0
						c-6.2-0.7-10.7-6.4-10-12.6l1.8-15.3l-33.9-4c-5.8-0.7-9.9-5.9-9.3-11.7l0.9-7.7C1022.1,662.9,1022.7,661.1,1023.6,659.5z
						 M1066.8,665.7l6.1-52c0-0.4-0.4-0.5-0.6-0.2l-27.8,49.1c-0.5,0.9,0.1,2,1,2.1l19.8,2.3C1066,667,1066.7,666.5,1066.8,665.7z"
						/>
					<path class="st5" d="M930.2,586.5c2.7-23.4,16.7-35.4,39.3-32.8c22.6,2.6,33.4,17.5,30.7,40.9l-8.9,76.2
						c-2.7,23.4-16.7,35.4-39.3,32.8c-22.6-2.6-33.4-17.5-30.7-40.9L930.2,586.5z M944.1,666.8c-1.2,10.5,2.9,15,10.2,15.8
						c7.3,0.9,12.4-2.6,13.6-13.1l9.2-79.1c1.2-10.5-2.9-15-10.2-15.8c-7.3-0.9-12.4,2.6-13.6,13.1L944.1,666.8z"/>
				</g>
				<g>
					<path class="st6" d="M799.5,475.4c-0.5,4.3-4.4,7.3-8.6,6.8c-4.3-0.5-7.3-4.4-6.8-8.6c0.5-4.3,4.4-7.3,8.6-6.8
						S800,471.1,799.5,475.4z"/>
					<path class="st2" d="M836.7,479.7c-0.5,4.3-4.4,7.3-8.6,6.8c-4.3-0.5-7.3-4.4-6.8-8.6c0.5-4.3,4.4-7.3,8.6-6.8
						C834.2,471.6,837.2,475.5,836.7,479.7z"/>
					<path class="st7" d="M875.3,484.2c-0.5,4.3-4.4,7.3-8.6,6.8s-7.3-4.4-6.8-8.6c0.5-4.3,4.4-7.3,8.6-6.8
						C872.8,476.1,875.8,480,875.3,484.2z"/>
				</g>
			</g>
		</g>
		<g>
			<path class="st4" d="M725.9,754.8c0,0-5,22.2-4.2,45C722.4,820.2,720,954,720,954h16.3c0,0,23.3-104.8,24.1-113.1
				c0.9-8.3,12.6-91.1,12.6-91.1L725.9,754.8z"/>
			<path class="st5" d="M736.8,748.7c0,0,3.8,28.6,10.2,48.9c6.4,20.3,37.8,156.4,37.8,156.4h16.3c0,0-3-104.8-4.1-113.1
				s-9.4-91.1-9.4-91.1L736.8,748.7z"/>
			<path class="st5" d="M786.1,953.9v11.4h31.1c1.8,0,2.5-2.3,1-3.3c-4.6-3-11.8-7.2-18.6-8.1L786.1,953.9L786.1,953.9z"/>
			<path class="st4" d="M720.9,953.9v11.4H752c1.8,0,2.5-2.3,1-3.3c-4.6-3-11.8-7.2-18.6-8.1L720.9,953.9L720.9,953.9z"/>
			<g>
				<path class="st8" d="M777.1,615.6c0,0,10.7-16.3-1.6-17.8c-9.4-1.2-13.3,1.6-13.3,1.6s-10.9-1.2-16.8,4
					c-4.1,3.5-19,30.9,5.2,40.8c24.2,9.9,19-15.5,19-15.5L777.1,615.6z"/>
				<path class="st9" d="M775.5,597.8c-9.4-1.2-13.3,1.6-13.3,1.6s-10.9-1.2-16.8,4c-4.1,3.5-19,30.9,5.2,40.8
					c11.4,4.7,16.3,1.5,18.2-3.1c-22.9,6.5-25.4-21.2-21.6-29.1c3.8-8,13.1-4.3,13.1-4.3c3.6-9.1,15.4-8.1,20.2-7.4
					C779.5,599,778,598.1,775.5,597.8z"/>
				<path class="st10" d="M762,623.6c0,0-3.2-3.2-5.5,0c-2.4,3.2-0.8,10.3,3.2,10.7c0,0-1.2,10.3-9.1,9.9v8.3h18.6v-6.3
					c0,0,11.5-4.8,11.1-14.3s-3.2-16.3-3.2-16.3S770.7,622.8,762,623.6z"/>
				<path class="st11" d="M764.8,648.8c1.8,0.8,1.5,1.9,1.6,3.7h2.7v-6.3c0,0-4.5,1.4-11.1-2.3C758,643.8,761.9,647.6,764.8,648.8z"
					/>
			</g>
			<path class="st10" d="M768.7,608.4c0,0-9.7-3.8-10.8-1c-0.7,1.9,1.1,3.5,3.7,5.2l-2.3,0.4c-0.5,0.1-0.7,0.7-0.3,1.1
				c0.6,0.5,2.4,0.9,6,1L768.7,608.4z"/>
			<g>
				<polygon class="st12" points="711.2,713.1 724.2,754.8 723.9,752.7 724.2,754.8 728.5,694.1 				"/>
				<path class="st7" d="M837.6,632.6C819.2,619,768.9,608,768.9,608l-4.1,7.6c0,0,45.7,17.7,42.6,20.3
					c-1.8,1.6-24.1,11.8-31.6,15.2c-1.6,0.7-3.4,1.1-5.2,1.1l-23.1-0.1c0,0-16.7-2-29.8,13.1C706,678.7,686,710,686,710l33.6,49.4
					l3.7,5.5v-0.1v0.5c0,0,1.2,0.1,3.3,0.3c10.8,1,45.4,3.7,63.7-0.1l0.5-0.1l-0.9-81c29.2-23.1,43.2-41,48.2-46.6
					C839.5,636.1,839.2,633.8,837.6,632.6z M724.9,743.1l-3.3-7.2l-10.4-22.8l17.3-19.4l-3.1,42.6L724.9,743.1z"/>
			</g>
			<polygon class="st13" points="721.6,735.9 724.9,743.1 723.3,764.7 723.3,764.8 719.6,759.3 			"/>
			<path class="st14" d="M782.1,681.3c-3.1,2.3-2.3,22.3-3.1,34.8c-1.3,21-2.5,39.1-1.6,50.8c4.7-0.3,9.2-0.8,12.9-1.6l0.5-0.1
				l-0.9-81c29.2-23.1,43.2-41,48.2-46.6c1.3-1.5,1.1-3.8-0.5-5C837.6,632.6,814.5,657.8,782.1,681.3z"/>
			<path class="st4" d="M797,840.9c-0.8-6-5.4-50.7-7.8-75.2l-11.7,1.3c0,0,17.1,140.9,18.3,187h5.4
				C801.1,954,798.1,849.1,797,840.9z"/>
			<g>
				<path class="st5" d="M721.7,625.9l-3.5-6.4c1.8-3.3,2.8-7.2,2.8-11.2c0-13.2-10.7-24-24-24s-24,10.7-24,24c0,13.2,10.7,24,24,24
					c6.7,0,12.7-2.7,17-7.1L721.7,625.9z"/>
				<g>
					<path class="st3" d="M684.5,606.1h0.9v3.3c0,1,0.3,1.5,1,1.5c0.6,0,1-0.3,1.5-0.9v-3.9h0.9v5.5H688l-0.1-0.9l0,0
						c-0.5,0.6-1,1-1.8,1c-1.2,0-1.7-0.7-1.7-2.1L684.5,606.1L684.5,606.1z"/>
					<path class="st3" d="M692.7,612.1v1.8h-0.9v-7.8h0.8l0.1,0.6l0,0c0.5-0.4,1.1-0.8,1.7-0.8c1.4,0,2.2,1.1,2.2,2.8
						c0,1.9-1.1,2.9-2.4,2.9c-0.5,0-1-0.2-1.5-0.6L692.7,612.1z M694,611c0.9,0,1.6-0.8,1.6-2.2c0-1.2-0.4-2-1.4-2
						c-0.5,0-0.9,0.3-1.5,0.7v2.9C693.2,610.8,693.7,611,694,611z"/>
					<path class="st3" d="M699,610.4c0.5,0.4,1,0.7,1.6,0.7c0.7,0,1.1-0.4,1.1-0.9c0-0.6-0.7-0.8-1.2-1c-0.8-0.3-1.6-0.7-1.6-1.6
						c0-0.9,0.7-1.6,1.9-1.6c0.7,0,1.3,0.3,1.7,0.6l-0.4,0.6c-0.4-0.3-0.8-0.5-1.2-0.5c-0.7,0-1,0.4-1,0.8c0,0.5,0.6,0.7,1.2,0.9
						c0.8,0.3,1.7,0.6,1.7,1.7c0,0.9-0.7,1.6-2,1.6c-0.8,0-1.5-0.3-2-0.8L699,610.4z"/>
					<path class="st3" d="M705.5,610.3c0.4,0,0.7,0.3,0.7,0.7s-0.3,0.7-0.7,0.7s-0.7-0.3-0.7-0.7S705.1,610.3,705.5,610.3z"/>
					<path class="st3" d="M709.4,610.3c0.4,0,0.7,0.3,0.7,0.7s-0.3,0.7-0.7,0.7s-0.7-0.3-0.7-0.7S709,610.3,709.4,610.3z"/>
				</g>
			</g>
		</g>
		<g>
			<g>
				<g>
					<path class="st2" d="M629.7,914.3c0,0-5-4.7-1.7-22.6c3.4-17.9,12-35,7.8-54.4s-37.2-68.2-37.3-71.5
						c-0.1-3.2-10.2,56.8,6.9,80.5c17.1,23.7,19.1,31.9,18.4,44.3c-0.8,12.4,0.2,22.5,2,25.4L629.7,914.3z"/>
					<path class="st15" d="M626.6,878.4c-2,8-3.2,27.9,0,32.7c0.3,0.4,0.7,0.2,1.3-0.6c-1-3.3-1.6-9.1,0.2-18.7
						c3.4-17.9,12-35,7.8-54.4s-37.2-68.2-37.3-71.5c0,0,5,40.7,21.7,68.7C632.2,854.7,628.6,870.4,626.6,878.4z"/>
				</g>
				<g>
					<path class="st2" d="M635.7,913.1c0,0-9.7-24.2,6.7-45.2s42.7-47.9,43.2-58.5c0,0,6.8,50.6-14.6,64.9
						c-21.4,14.3-36.4,16.6-32.7,38.7L635.7,913.1z"/>
					<path class="st15" d="M658.8,864.1c-23.8,17.4-25.8,37.4-22.1,46.6c0.3,0.7,0.8,1.2,1.6,1.4c-3.2-21.3,11.7-23.7,32.8-37.8
						c21.4-14.3,14.6-64.9,14.6-64.9S682.7,846.8,658.8,864.1z"/>
				</g>
				<g>
					<path class="st2" d="M619.8,913.6c0,0,3.1-12.8,1.5-26.7c-1.7-13.8-16.1-21.6-29.6-36.2c-6.9-7.5-9-47.3-4.7-51
						c0,0-23.8,28.9-20.2,50.1c3.7,21.2,42.6,34.9,46.2,45.1c3.6,10.2,3.3,18.8,3.3,18.8L619.8,913.6z"/>
					<g>
						<path class="st15" d="M578.9,811.1c-7.9,21.3,0.2,47.2,26.4,63.2c19.3,11.8,13.1,36.4,13.1,36.4l3.1-9.7
							c0.3-4.2,0.3-9.1-0.3-14.1c-1.7-13.8-16.1-21.6-29.6-36.2c-6.7-7.3-8.9-44.5-5.1-50.4C585.4,801.6,582.3,805.6,578.9,811.1z"
							/>
						<path class="st15" d="M586.5,800.3c0.3-0.3,0.4-0.5,0.4-0.5C586.8,799.9,586.6,800.1,586.5,800.3z"/>
					</g>
				</g>
				<g>
					<path class="st2" d="M640.7,912c0,0,5.6-20.7,19.4-23.5c13.8-2.8,29.7-23.2,30.6-27.2C690.7,861.3,688.3,899.8,640.7,912z"/>
					<path class="st15" d="M659.3,895.3c-8.5,4.2-12,9.9-13.2,15.1c42.4-13.6,44.6-49.2,44.6-49.2c-0.2,0.8-0.9,2.2-2.2,4.1
						C684.4,872.6,674.3,887.9,659.3,895.3z"/>
				</g>
			</g>
			<path class="st7" d="M670.6,904.4h-72.3l8.6,54c0.7,4.1,4.2,7.1,8.3,7.1h38.5c4.1,0,7.7-3,8.3-7.1L670.6,904.4z"/>
			<polygon class="st16" points="669.2,913.3 670.6,904.4 598.3,904.4 599.7,913.3 			"/>
			<path class="st16" d="M653.1,904.4l-8.6,54c-0.7,4.1-4.2,7.1-8.3,7.1h17.5c4.1,0,7.7-3,8.3-7.1l8.6-54H653.1z"/>
		</g>
		<g>
			<rect x="842.5" y="808.1" class="st7" width="326.8" height="66.4"/>
			<rect x="842.5" y="808.1" class="st14" width="326.8" height="16.1"/>
			<polygon class="st17" points="870.9,808.1 900.8,808.1 892.8,824.2 862.9,824.2 			"/>
			<polygon class="st17" points="938.1,808.1 968,808.1 960,824.2 930.1,824.2 			"/>
			<polygon class="st17" points="1005.3,808.1 1035.1,808.1 1027.2,824.2 997.3,824.2 			"/>
			<polygon class="st17" points="1072.5,808.1 1102.3,808.1 1094.3,824.2 1064.5,824.2 			"/>
			<polygon class="st17" points="1169.3,808.1 1169.3,808.5 1161.5,824.2 1131.7,824.2 1139.7,808.1 			"/>
			<rect x="883.2" y="874.5" class="st18" width="23" height="90.8"/>
			<rect x="901" y="874.5" class="st15" width="5.2" height="90.8"/>
			<rect x="1107.4" y="874.5" class="st18" width="23" height="90.8"/>
			<rect x="1123.6" y="874.5" class="st15" width="6.8" height="90.8"/>
			<rect x="883.2" y="874.4" class="st15" width="23" height="11.4"/>
			<rect x="1107.4" y="874.4" class="st15" width="23" height="11.4"/>
			<rect x="883.2" y="797.7" class="st2" width="23" height="10.3"/>
			<rect x="901" y="797.7" class="st15" width="5.2" height="10.3"/>
			<rect x="1107.4" y="797.7" class="st2" width="23" height="10.3"/>
			<rect x="1123.6" y="797.7" class="st15" width="6.8" height="10.3"/>
			<rect x="883.2" y="806.7" class="st15" width="23" height="1.3"/>
			<rect x="1107.4" y="806.7" class="st15" width="23" height="1.3"/>
			<g>
				<g>
					<polygon class="st19" points="900.8,808.1 867.8,874.5 842.5,874.5 842.5,865.3 870.9,808.1 					"/>
					<polygon class="st19" points="938.1,808.1 905.2,874.5 935,874.5 968,808.1 					"/>
					<polygon class="st19" points="1035.1,808.1 1002.2,874.5 972.4,874.5 1005.3,808.1 					"/>
					<polygon class="st19" points="1102.3,808.1 1069.4,874.5 1039.6,874.5 1072.5,808.1 					"/>
					<polygon class="st19" points="1139.7,808.1 1106.7,874.5 1136.6,874.5 1169.3,808.5 					"/>
				</g>
			</g>
			<g>
				<g>
					<polygon class="st8" points="900.8,808.1 892.8,824.2 862.9,824.2 870.9,808.1 					"/>
					<polygon class="st8" points="968,808.1 960,824.2 930.1,824.2 938.1,808.1 					"/>
					<polygon class="st8" points="1035.1,808.1 1027.2,824.2 997.3,824.2 1005.3,808.1 					"/>
					<polygon class="st8" points="1102.3,808.1 1094.3,824.2 1064.5,824.2 1072.5,808.1 					"/>
					<polygon class="st8" points="1169.3,808.5 1161.5,824.2 1131.7,824.2 1139.7,808.1 					"/>
				</g>
			</g>
			
				<linearGradient id="SVGID_1_" gradientUnits="userSpaceOnUse" x1="1007.6" y1="186.0574" x2="1007.6" y2="239.5752" gradientTransform="matrix(1 0 0 -1 0 1080)">
				<stop  offset="0" style="stop-color:#FFFFFF"/>
				<stop  offset="1" style="stop-color:#FFFFFF;stop-opacity:0"/>
			</linearGradient>
			<rect x="851.6" y="836.8" class="st20" width="312" height="33.2"/>
			<ellipse class="st7" cx="894.1" cy="783.3" rx="20.5" ry="20.5"/>
			<path class="st19" d="M903.4,783.3c0-5.1-4.2-9.3-9.3-9.3s-9.3,4.2-9.3,9.3s4.2,9.3,9.3,9.3C899.3,792.6,903.4,788.4,903.4,783.3
				z"/>
			<ellipse class="st7" cx="1118.7" cy="783.3" rx="20.5" ry="20.5"/>
			<path class="st19" d="M1128.1,783.3c0-5.1-4.2-9.3-9.3-9.3c-5.1,0-9.3,4.2-9.3,9.3s4.2,9.3,9.3,9.3S1128.1,788.4,1128.1,783.3z"
				/>
		</g>
		<g>
			<path class="st7" d="M1293.1,958.3H1189l15.9-38.6l0,0l6.4-15.6l1.8-4.3l2.9-6.9l0.6-1.4l6.4-15.6l1.2-2.8l11.3-27.5
				c2-5,9.1-5,11.1,0l11.3,27.5l1.2,2.8l6.4,15.6l0.6,1.4l2.9,6.9l1.8,4.3l6.4,15.6l0,0L1293.1,958.3z"/>
			<polygon class="st14" points="1195.8,941.8 1189,958.3 1293.1,958.3 1286.3,941.8 			"/>
			<rect x="1180.7" y="948.4" class="st18" width="119.2" height="16.8"/>
			<rect x="1274.1" y="948.4" class="st15" width="25.8" height="16.8"/>
			<g>
				<path class="st14" d="M1289,948.4h-14.7l-11.8-28.7l0,0l-6.4-15.6l-1.8-4.3l-2.9-6.9l-0.6-1.4l-6.4-15.6l-1.2-2.8l-9.5-23.2
					l1.8-4.4c2-5,9.1-5,11.1,0l11.3,27.5l1.2,2.8l6.4,15.6l0.6,1.4l2.9,6.9l1.8,4.3l6.4,15.6l0,0L1289,948.4z"/>
				<g>
					<polygon class="st19" points="1265.5,891.5 1216.6,891.5 1223,875.9 1259.1,875.9 					"/>
					<polygon class="st19" points="1277.2,919.7 1277.2,919.7 1204.9,919.7 1204.9,919.7 1211.3,904.1 1270.8,904.1 					"/>
					<polygon class="st8" points="1265.5,891.5 1250.8,891.5 1244.4,875.9 1259.1,875.9 					"/>
					<polygon class="st8" points="1277.2,919.7 1277.2,919.7 1262.4,919.7 1262.4,919.7 1256,904.1 1270.8,904.1 					"/>
				</g>
			</g>
		</g>
		<g>
			<path class="st0" d="M629.7,579.9c7.8,0,14.5-5.6,15.6-13.3c0.2-1.4,0.3-2.8,0.3-4.2c0-17.2-13.9-31.1-31.1-31.1
				c-0.7,0-1.4,0-2.1,0.1c-1.4-16.9-15.6-30.2-32.9-30.2c-18.2,0-33,14.8-33,33c0,0.8,0,1.6,0.1,2.4c-5.2-2.9-11.2-4.4-17.6-4.1
				c-16.6,0.8-30.2,14-31.4,30.6c0,0.1,0,0.3,0,0.4c-0.5,9,6.7,16.5,15.8,16.5h116.3V579.9z"/>
			<path class="st0" d="M1370.9,604.3c24.6,0,25.9-37,1.4-38.2c-0.7,0-1.3,0-2,0c-4.4,0-8.6,0.7-12.5,2c-3.3-20-20.6-35.3-41.6-35.3
				c-21.4,0-39.1,15.9-41.8,36.6c-5.1-2.4-10.8-3.8-16.8-3.8c-3.4,0-6.6,0.4-9.7,1.2c-21.5,5.5-17,37.5,5.2,37.5H1370.9z"/>
			<path class="st0" d="M1076,422.2c24.6,0,25.9-36.9,1.4-38.1c-0.7,0-1.3,0-2,0c-4.4,0-8.6,0.7-12.5,2c-3.3-20-20.6-35.3-41.6-35.3
				c-21.4,0-39,15.9-41.8,36.6c-5.1-2.4-10.8-3.8-16.8-3.8c-3.4,0-6.6,0.4-9.7,1.2c-21.5,5.5-17,37.5,5.2,37.5H1076V422.2z"/>
			<circle class="st0" cx="685.1" cy="431.7" r="58.9"/>
			<path class="st21" d="M685.6,372.8c16,10.5,26.6,28.6,26.6,49.2c0,32.5-26.4,58.9-58.9,58.9c-0.2,0-0.3,0-0.5,0
				c9.3,6.1,20.4,9.6,32.3,9.6c32.5,0,58.9-26.4,58.9-58.9C744,399.3,717.9,373.1,685.6,372.8z"/>
		</g>
	</g>
</g>
</svg>
