<?xml version="1.0" encoding="utf-8"?>
<!-- Generator: Adobe Illustrator 24.3.0, SVG Export Plug-In . SVG Version: 6.00 Build 0)  -->
<svg version="1.1" id="Layer_1" xmlns="http://www.w3.org/2000/svg" xmlns:xlink="http://www.w3.org/1999/xlink" x="0px" y="0px"
	 viewBox="0 0 700 49" style="enable-background:new 0 0 700 49;" xml:space="preserve">
<style type="text/css">
	.st0{fill:#D6D6D6;}
	.st1{fill:#8B8B8B;}
	.st2{fill:#94D174;stroke:#94D174;stroke-width:2;stroke-miterlimit:10;}
	.st3{fill:#FFFFFF;}
	.st4{fill:#FFFFFF;stroke:#8B8B8B;stroke-width:2;stroke-miterlimit:10;}
</style>
<g>
	<rect x="18.1" y="30.6" class="st0" width="220.6" height="2"/>
	<rect x="242.5" y="30.6" class="st0" width="220.6" height="2"/>
	<rect x="466.8" y="30.6" class="st0" width="220.6" height="2"/>
</g>
<g>
	<path class="st1" d="M15.9,9.1c-0.3,0-0.6-0.1-0.8-0.4l-5-6c-0.3-0.4-0.3-1,0.2-1.4c0.4-0.4,1.1-0.3,1.4,0.1l4.2,5.1l4.2-5.1
		c0.4-0.4,1-0.5,1.4-0.1s0.5,1,0.1,1.4l-5,6C16.5,9,16.2,9.1,15.9,9.1z"/>
</g>
<g>
	<circle class="st2" cx="16" cy="31.6" r="14"/>
	<g>
		<path class="st3" d="M14,37.6c-0.4,0-0.8-0.1-1.1-0.4l-5-5c-0.6-0.6-0.6-1.5,0-2.1s1.5-0.6,2.1,0l3.9,3.9l7.9-7.9
			c0.6-0.6,1.5-0.6,2.1,0s0.6,1.5,0,2.1l-9,9C14.8,37.5,14.4,37.6,14,37.6z"/>
	</g>
</g>
<g>
	<circle class="st4" cx="461.3" cy="31.6" r="14"/>
	<g>
		<path class="st1" d="M464.5,28.8c0,0.6-0.2,1.2-0.6,1.6c-0.4,0.4-0.9,0.7-1.6,0.9l0,0c0.8,0.1,1.4,0.3,1.8,0.7
			c0.4,0.4,0.6,0.9,0.6,1.6c0,1-0.3,1.7-1,2.2s-1.7,0.8-3,0.8c-1.1,0-2-0.2-2.9-0.5v-1.8c0.4,0.2,0.8,0.4,1.3,0.5s0.9,0.2,1.4,0.2
			c0.7,0,1.2-0.1,1.5-0.4c0.3-0.2,0.5-0.6,0.5-1.1s-0.2-0.8-0.6-1s-1-0.3-1.8-0.3h-0.8v-1.6h0.8c0.8,0,1.3-0.1,1.7-0.3
			c0.4-0.2,0.5-0.6,0.5-1c0-0.8-0.5-1.1-1.4-1.1c-0.3,0-0.7,0.1-1,0.2s-0.7,0.3-1.1,0.6l-1-1.5c0.9-0.7,2-1,3.3-1
			c1,0,1.9,0.2,2.5,0.6C464.2,27.5,464.5,28.1,464.5,28.8z"/>
	</g>
</g>
<g>
	<circle class="st4" cx="238.7" cy="31.6" r="14"/>
	<g>
		<path class="st1" d="M242.2,36.7h-7v-1.5l2.5-2.5c0.7-0.8,1.2-1.3,1.5-1.6c0.2-0.3,0.4-0.6,0.5-0.8c0.1-0.3,0.2-0.5,0.2-0.8
			c0-0.4-0.1-0.7-0.3-0.9c-0.2-0.2-0.5-0.3-0.9-0.3s-0.8,0.1-1.1,0.3c-0.4,0.2-0.7,0.4-1.1,0.8l-1.1-1.4c0.5-0.4,0.9-0.7,1.2-0.9
			c0.3-0.2,0.7-0.3,1.1-0.4s0.8-0.1,1.3-0.1c0.6,0,1.2,0.1,1.7,0.3s0.9,0.5,1.1,1c0.3,0.4,0.4,0.9,0.4,1.4s-0.1,0.9-0.2,1.3
			c-0.2,0.4-0.4,0.8-0.8,1.2c-0.3,0.4-0.9,1-1.8,1.8l-1.3,1.2v0.1h4.4v1.8H242.2z"/>
	</g>
</g>
<g>
	<circle class="st4" cx="684" cy="31.6" r="14"/>
	<g>
		<path class="st1" d="M687.8,34.6h-1.2v2.1h-2.1v-2.1h-4.3v-1.5l4.4-6.5h1.9v6.3h1.2V34.6z M684.5,32.9v-1.7c0-0.3,0-0.7,0-1.2
			s0-0.8,0.1-0.9h-0.1c-0.2,0.4-0.4,0.7-0.6,1.1l-1.8,2.8H684.5z"/>
	</g>
</g>
</svg>
