<?xml version="1.0" encoding="utf-8"?>
<!-- Generator: Adobe Illustrator 24.2.3, SVG Export Plug-In . SVG Version: 6.00 Build 0)  -->
<svg version="1.1" id="Layer_1" xmlns="http://www.w3.org/2000/svg" xmlns:xlink="http://www.w3.org/1999/xlink" x="0px" y="0px"
	 viewBox="0 0 1516 400" style="enable-background:new 0 0 1516 400;" xml:space="preserve">
<style type="text/css">
	.st0{fill:#392B8A;}
	.st1{fill:#E8CBB1;}
	.st2{fill:#ECA86D;}
</style>
<g>
	<path class="st0" d="M196.3,18c-100.5,0-182,81.5-182,182s81.5,182,182,182V18z"/>
	<g>
		<path class="st1" d="M196.3,100c-55.2,0-100,44.8-100,100s44.8,100,100,100V100z"/>
		<path class="st2" d="M196.3,300c55.2,0,100-44.8,100-100s-44.8-100-100-100L196.3,300L196.3,300z"/>
	</g>
</g>
<g>
	<path d="M399.4,231.6c8.2,0,14.2-1.7,18.1-5.1s5.8-7.7,5.8-13.1c0-4.7-1.5-8.4-4.5-11.3c-3-2.9-7.7-5.3-14.2-7.2l-14.6-4.5
		c-4.5-1.4-8.7-3.1-12.4-5c-3.7-1.9-6.9-4.1-9.5-6.6s-4.6-5.5-5.9-9c-1.4-3.4-2-7.4-2-12c0-10.3,3.8-18.3,11.4-24.2
		s17.9-8.9,30.9-8.9c5.3,0,10.3,0.4,14.8,1.3c4.5,0.8,8.5,2,11.8,3.5c3.3,1.5,5.9,3.2,7.8,5.3c1.9,2,2.8,4.2,2.8,6.5
		c0,2.2-0.5,4.1-1.7,5.8c-1.1,1.6-2.4,3-4,4c-3.2-2.5-7.5-4.6-12.8-6.3s-11.1-2.6-17.4-2.6c-7.1,0-12.7,1.4-16.6,4.3
		s-5.8,6.7-5.8,11.5c0,3.9,1.4,7.1,4.1,9.4s7.2,4.5,13.4,6.3l11.3,3.3c10.9,3.2,19.4,7.7,25.4,13.3s9.1,13.3,9.1,23.1
		c0,5.2-1,10-3,14.3c-2,4.4-4.9,8.1-8.7,11.2c-3.8,3.1-8.5,5.5-14.1,7.2s-12,2.5-19.2,2.5c-6,0-11.4-0.5-16.4-1.6
		c-4.9-1-9.2-2.4-12.8-4.1s-6.3-3.6-8.3-5.8s-2.9-4.5-2.9-7c0-2.6,0.8-4.8,2.3-6.6c1.6-1.8,3.4-3.2,5.5-4.1
		c3.1,2.9,7.4,5.6,12.8,8.2C385.4,230.3,391.9,231.6,399.4,231.6z"/>
	<path d="M554.7,200.4c0,7.4-1.1,14.1-3.3,20.1s-5.3,11-9.2,15.2s-8.8,7.4-14.5,9.6c-5.7,2.3-12.1,3.4-19.1,3.4s-13.4-1.1-19.1-3.4
		c-5.7-2.3-10.5-5.5-14.5-9.6s-7-9.2-9.2-15.2s-3.3-12.7-3.3-20.1c0-7.4,1.1-14.1,3.3-20.1c2.2-6,5.3-11,9.4-15.2
		c4-4.2,8.9-7.4,14.6-9.6c5.7-2.3,12-3.4,18.9-3.4s13.2,1.1,18.9,3.4c5.7,2.3,10.6,5.5,14.6,9.7s7.1,9.3,9.3,15.2
		C553.6,186.3,554.7,193,554.7,200.4z M508.5,168.4c-7.8,0-14,2.8-18.5,8.4c-4.5,5.6-6.8,13.4-6.8,23.6s2.2,18,6.6,23.5
		s10.6,8.3,18.7,8.3s14.3-2.8,18.7-8.3s6.6-13.3,6.6-23.5c0-10-2.2-17.8-6.7-23.5C522.7,171.3,516.5,168.4,508.5,168.4z"/>
	<path d="M597,245.6c-0.9,0.4-2.2,0.8-3.8,1.1s-3.4,0.5-5.4,0.5c-3.8,0-6.6-0.7-8.4-2.1c-1.8-1.4-2.7-3.8-2.7-7.2V174
		c0-3.2,0.7-5.9,2-7.9s3.4-3.9,6.2-5.8c3.8-2.3,8.6-4.3,14.4-5.8s12.3-2.3,19.3-2.3c11.4,0,17.1,3.2,17.1,9.7c0,1.6-0.3,3-0.8,4.4
		s-1.1,2.6-1.8,3.6c-1.3-0.3-2.9-0.5-4.9-0.8s-4-0.4-6.2-0.4c-5.2,0-9.9,0.6-14.2,1.7c-4.3,1.1-7.9,2.5-10.9,4.2L597,245.6
		L597,245.6z"/>
	<path d="M677.2,229.2c2.7,1.9,6.6,2.9,11.5,2.9c2.2,0,4.5-0.3,7-1c2.5-0.6,4.6-1.4,6.4-2.3c0.9,1,1.7,2.2,2.4,3.5s1.1,2.9,1.1,4.7
		c0,3.4-1.7,6.2-5.2,8.4s-8.7,3.3-15.7,3.3c-9.7,0-17.5-2.2-23.3-6.5s-8.7-11.5-8.7-21.5v-91c0.9-0.3,2.2-0.6,3.9-1s3.5-0.6,5.5-0.6
		c3.8,0,6.5,0.7,8.3,2.1c1.8,1.4,2.6,3.8,2.6,7.2v19.3h30.2c0.5,0.8,1,1.9,1.5,3.3c0.5,1.4,0.7,2.9,0.7,4.5c0,5.6-2.4,8.4-7.2,8.4
		h-25.1v46.4C673.1,224,674.5,227.3,677.2,229.2z"/>
	<path d="M740,210.7c1.8,7.4,5.4,12.9,10.6,16.5s12,5.4,20.2,5.4c5.5,0,10.5-0.8,15-2.5s8.2-3.5,10.9-5.4c3.6,2.1,5.5,5,5.5,8.8
		c0,2.2-0.8,4.3-2.5,6.1c-1.7,1.9-4,3.5-6.9,4.9s-6.4,2.4-10.3,3.2c-4,0.8-8.2,1.2-12.8,1.2c-7.5,0-14.4-1-20.5-3.1
		c-6.2-2.1-11.5-5.2-15.9-9.4s-7.8-9.3-10.2-15.4c-2.4-6.1-3.6-13.2-3.6-21.2c0-7.8,1.2-14.6,3.5-20.6s5.5-10.8,9.5-14.8
		s8.8-7,14.2-9.1c5.5-2.1,11.3-3.1,17.5-3.1s11.9,1,17,3s9.5,4.8,13.2,8.4s6.6,7.8,8.6,12.8c2,4.9,3,10.3,3,16.2
		c0,3.2-0.8,5.6-2.3,7.1s-3.8,2.5-6.8,3L740,210.7z M764.1,167.9c-7.1,0-13.1,2.4-17.8,7.2s-7.2,11.7-7.5,20.6l47.9-6.8
		c-0.5-5.8-2.7-10.8-6.4-14.9C776.5,169.9,771.1,167.9,764.1,167.9z"/>
	<path d="M825.5,126.8c0-3.4,1.2-6.2,3.5-8.5s5.3-3.4,9-3.4c3.6,0,6.6,1.1,8.8,3.4s3.3,5.1,3.3,8.5c0,3.4-1.1,6.2-3.3,8.5
		s-5.1,3.4-8.8,3.4s-6.6-1.1-9-3.4C826.7,132.9,825.5,130.1,825.5,126.8z M848.1,245.6c-0.9,0.4-2.2,0.8-3.8,1.1s-3.5,0.5-5.5,0.5
		c-3.8,0-6.6-0.7-8.4-2.1c-1.8-1.4-2.7-3.8-2.7-7.2v-82.4c1-0.3,2.4-0.6,4-1s3.5-0.6,5.5-0.6c3.8,0,6.5,0.7,8.3,2.1
		c1.8,1.4,2.6,3.9,2.6,7.4L848.1,245.6L848.1,245.6z"/>
	<path d="M909.8,152.1c12.1,0,21.7,2.6,28.8,7.9s10.7,13.5,10.7,24.8v45.4c0,3-0.7,5.3-2,6.9c-1.4,1.6-3.2,3.1-5.5,4.6
		c-3.4,1.9-7.7,3.6-13,5.1c-5.3,1.4-11.5,2.1-18.5,2.1c-12.6,0-22.4-2.5-29.5-7.4s-10.6-12.2-10.6-21.8c0-8.6,2.8-15.1,8.3-19.7
		c5.5-4.5,13.5-7.3,23.9-8.4l27.1-2.7v-4.3c0-5.7-1.8-9.9-5.5-12.5s-8.9-3.9-15.5-3.9c-5.2,0-10.2,0.7-15,2.1
		c-4.8,1.4-9.1,3.1-12.9,4.9c-1.3-1-2.4-2.3-3.3-3.8c-0.9-1.5-1.4-3.1-1.4-5c0-2.2,0.5-4,1.7-5.4c1.1-1.4,2.8-2.7,5.2-3.7
		c3.6-1.8,7.8-3.1,12.5-4C899.7,152.5,904.6,152.1,909.8,152.1z M910.2,232.9c4.5,0,8.5-0.4,11.9-1.4s5.8-1.9,7.2-2.9v-24.7
		l-21.2,2.1c-6,0.6-10.5,2-13.4,4c-3,2-4.5,5.1-4.5,9.2c0,4.3,1.6,7.6,4.9,10C898.3,231.7,903.3,232.9,910.2,232.9z"/>
	<path d="M1072.9,243.8c-1,0.8-2.7,1.5-5.1,2.2c-2.3,0.7-4.9,1.1-7.8,1.1c-3.2,0-6.1-0.5-8.6-1.4s-4.2-2.3-5.1-4.1
		c-1.7-3.2-3.6-7.5-5.8-12.7c-2.2-5.2-4.6-11-7-17.3c-2.5-6.4-5-13.1-7.5-20.2s-5-14.1-7.5-21.1s-4.7-13.8-6.8-20.5
		c-2.1-6.6-3.9-12.7-5.5-18.1c1-1.3,2.6-2.5,4.7-3.6c2.1-1.1,4.3-1.7,6.8-1.7c3.1,0,5.5,0.7,7.2,2.1c1.7,1.4,3.1,3.8,4.1,7
		c5.1,15.9,10,31.1,14.9,45.8s10.2,29.7,15.9,45h1c2.5-7,5.1-14.5,7.8-22.5c2.7-8,5.4-16.2,8.1-24.6c2.7-8.4,5.2-16.9,7.7-25.4
		c2.5-8.6,4.7-17,6.8-25.3c2.6-1.4,5.7-2.1,9.3-2.1c3,0,5.5,0.8,7.5,2.2c2,1.4,3,3.7,3,6.7c0,2.2-0.7,6-2.1,11.4s-3.3,11.6-5.7,18.7
		s-4.9,14.6-7.8,22.6s-5.7,15.6-8.5,22.9c-2.8,7.3-5.4,13.8-8,19.7C1076.5,236.6,1074.4,241,1072.9,243.8z"/>
	<path d="M1162.3,152.1c12.1,0,21.7,2.6,28.8,7.9s10.7,13.5,10.7,24.8v45.4c0,3-0.7,5.3-2.1,6.9c-1.4,1.6-3.2,3.1-5.6,4.6
		c-3.4,1.9-7.7,3.6-13.1,5.1c-5.3,1.4-11.5,2.1-18.5,2.1c-12.6,0-22.4-2.5-29.5-7.4s-10.6-12.2-10.6-21.8c0-8.6,2.8-15.1,8.3-19.7
		c5.5-4.5,13.5-7.3,23.9-8.4l27.1-2.7v-4.3c0-5.7-1.8-9.9-5.6-12.5c-3.7-2.6-8.9-3.9-15.5-3.9c-5.2,0-10.2,0.7-15,2.1
		c-4.8,1.4-9.1,3.1-12.9,4.9c-1.3-1-2.4-2.3-3.3-3.8s-1.4-3.1-1.4-5c0-2.2,0.6-4,1.7-5.4s2.8-2.7,5.2-3.7c3.6-1.8,7.8-3.1,12.5-4
		C1152.2,152.5,1157.1,152.1,1162.3,152.1z M1162.7,232.9c4.5,0,8.5-0.4,11.9-1.4s5.8-1.9,7.2-2.9v-24.7l-21.2,2.1
		c-6,0.6-10.5,2-13.4,4c-3,2-4.5,5.1-4.5,9.2c0,4.3,1.6,7.6,4.9,10C1150.8,231.7,1155.8,232.9,1162.7,232.9z"/>
	<path d="M1287.6,237.4c-2.5,1.6-5.5,2.9-9.1,3.9s-7.8,1.6-12.8,1.6c-5.7,0-11.1-0.8-16.3-2.4s-9.6-4.2-13.5-7.8s-7-8.2-9.2-13.9
		c-2.3-5.7-3.4-12.7-3.4-21c0-7.5,1.1-14.1,3.4-19.8c2.3-5.6,5.4-10.4,9.6-14.2c4.1-3.8,9-6.7,14.6-8.7s11.9-2.9,18.8-2.9
		c6.4,0,12.2,0.8,17.6,2.4c5.4,1.6,9.8,3.5,13.2,5.8c2.2,1.4,3.9,3.1,5.2,4.9c1.2,1.8,1.8,4,1.8,6.6v76.8c0,6.5-1.1,12.1-3.4,16.7
		c-2.3,4.7-5.4,8.5-9.3,11.4c-4,2.9-8.7,5.1-14.1,6.4c-5.5,1.4-11.3,2-17.5,2c-6.6,0-12.3-0.6-17.1-2c-4.8-1.3-8.3-2.6-10.5-3.9
		c-4-2.5-6-5.7-6-9.7c0-2.2,0.4-4.1,1.4-5.5s2.1-2.7,3.5-3.6c3,2.1,6.9,4,11.9,5.6s10.2,2.5,15.8,2.5c8.2,0,14.5-1.7,19-5
		s6.7-8.7,6.7-16.1L1287.6,237.4L1287.6,237.4z M1268.7,226.9c4.4,0,8.1-0.6,11.1-1.9c3-1.3,5.5-2.9,7.6-4.7v-47.1
		c-1.9-1.2-4.3-2.2-7.2-3.2s-6.2-1.5-10.1-1.5c-7.9,0-14.3,2.4-19.1,7.2c-4.8,4.8-7.2,12.1-7.2,21.8c0,5.3,0.7,9.9,1.9,13.6
		c1.3,3.8,3.1,6.8,5.3,9.2s4.8,4,7.9,5.1C1261.9,226.4,1265.2,226.9,1268.7,226.9z"/>
	<path d="M1368,152.1c12.1,0,21.7,2.6,28.8,7.9s10.7,13.5,10.7,24.8v45.4c0,3-0.7,5.3-2.1,6.9c-1.4,1.6-3.2,3.1-5.6,4.6
		c-3.4,1.9-7.7,3.6-13.1,5.1c-5.3,1.4-11.5,2.1-18.5,2.1c-12.6,0-22.4-2.5-29.5-7.4s-10.6-12.2-10.6-21.8c0-8.6,2.8-15.1,8.3-19.7
		c5.5-4.5,13.5-7.3,23.9-8.4l27.1-2.7v-4.3c0-5.7-1.8-9.9-5.6-12.5c-3.7-2.6-8.9-3.9-15.5-3.9c-5.2,0-10.2,0.7-15,2.1
		c-4.8,1.4-9.1,3.1-12.9,4.9c-1.3-1-2.4-2.3-3.3-3.8s-1.4-3.1-1.4-5c0-2.2,0.6-4,1.7-5.4s2.8-2.7,5.2-3.7c3.6-1.8,7.8-3.1,12.5-4
		C1357.9,152.5,1362.8,152.1,1368,152.1z M1368.4,232.9c4.5,0,8.5-0.4,11.9-1.4s5.8-1.9,7.2-2.9v-24.7l-21.2,2.1
		c-6,0.6-10.5,2-13.4,4c-3,2-4.5,5.1-4.5,9.2c0,4.3,1.6,7.6,4.9,10C1356.5,231.7,1361.5,232.9,1368.4,232.9z"/>
	<path d="M1501.7,220.8c0,8.7-3.2,15.5-9.7,20.5c-6.5,4.9-15.9,7.4-28.2,7.4c-5.1,0-9.7-0.4-14-1.2s-8-1.9-11-3.3s-5.4-3.1-7.1-5.1
		c-1.7-1.9-2.5-4.1-2.5-6.4c0-1.9,0.5-3.8,1.5-5.5s2.3-3.1,4-4.1c3.6,2.3,7.8,4.5,12.5,6.4s10.1,2.9,16.4,2.9c5.8,0,10.3-1,13.4-3
		s4.7-4.9,4.7-8.7c0-3.2-1.1-5.8-3.2-7.8s-5.3-3.4-9.4-4.5l-13.2-3.5c-8.8-2.3-15.3-5.5-19.5-9.6c-4.2-4-6.2-9.6-6.2-16.6
		c0-3.8,0.8-7.3,2.3-10.6c1.6-3.3,3.9-6.2,6.9-8.6c3.1-2.4,6.8-4.3,11.4-5.6c4.5-1.4,9.7-2.1,15.6-2.1c4.7,0,8.9,0.4,12.8,1.1
		c3.8,0.7,7.1,1.7,9.9,2.9s5,2.8,6.5,4.6s2.3,3.8,2.3,5.8c0,2.1-0.5,3.9-1.4,5.4s-2.1,2.7-3.5,3.6c-2.3-1.4-5.8-3-10.4-4.7
		s-9.6-2.5-14.9-2.5c-5.5,0-9.7,0.9-12.9,2.8s-4.7,4.5-4.7,7.9c0,2.6,0.9,4.7,2.6,6.4c1.8,1.7,4.8,3.1,9.1,4.1l11.3,2.9
		c9.9,2.6,17.1,6.1,21.8,10.5C1499.3,207.3,1501.7,213.3,1501.7,220.8z"/>
</g>
</svg>
