<?xml version="1.0" encoding="utf-8"?>
<!-- Generator: Adobe Illustrator 24.3.0, SVG Export Plug-In . SVG Version: 6.00 Build 0)  -->
<svg version="1.1" id="Layer_1" xmlns="http://www.w3.org/2000/svg" xmlns:xlink="http://www.w3.org/1999/xlink" x="0px" y="0px"
	 viewBox="0 0 55 55" style="enable-background:new 0 0 55 55;" xml:space="preserve">
<style type="text/css">
	.st0{fill:#999999;}
</style>
<path class="st0" d="M27.5,1C12.9,1,1,12.9,1,27.5S12.9,54,27.5,54S54,42.1,54,27.5S42.1,1,27.5,1z M41.6,28.9H28.9v12.6
	c0,0.8-0.6,1.4-1.4,1.4s-1.4-0.6-1.4-1.4V28.9H13.4c-0.8,0-1.4-0.6-1.4-1.4c0-0.8,0.6-1.4,1.4-1.4h12.6V13.4c0-0.8,0.6-1.4,1.4-1.4
	s1.4,0.6,1.4,1.4v12.6h12.6c0.8,0,1.4,0.6,1.4,1.4C43,28.3,42.4,28.9,41.6,28.9z"/>
</svg>
